<svg class="svg-icon" style="width: 1em; height: 1em;vertical-align: middle;fill: currentColor;overflow: hidden;" viewBox="0 0 1024 1024" version="1.1" xmlns="http://www.w3.org/2000/svg"><path d="M946.4 713.7l-0.2-1c-1-4.7-2.1-9.4-3.5-14.1l-103.2-412-660.4-9.8L73 701.8c-0.4 1.7-0.9 3.4-1.3 5.1l-0.5 2.1h0.1c-16.5 75.7 25.8 155 126.6 213.2 172.7 99.7 451.7 99.7 623.3 0 98-56.9 139.7-134.2 125.2-208.5z" fill="#337DFF" /><path d="M777.7 175.2c143.9 83.1 181 287.6-8.8 398.3-142.8 83.3-377.3 86.2-519.3 0C44.4 449 96.3 256 239.3 172.9s394.5-80.7 538.4 2.3z" fill="#FFDEDE" /><path d="M726.2 168.8C668.5 99.3 592.4 46.1 509.1 46.1c-82.8 0-158.4 52-216 120.6-52 61.9-89.4 137.3-104 200 15.2 30.5 43.5 59.2 85.1 83.2 130.3 75.2 340.8 75.2 470.2 0 41.7-24.2 69.9-53.3 84.6-84.1-15-61.4-51.7-135.6-102.8-197z" fill="#FFE872" /><path d="M445.4 690.8c-1.8-0.2-3.6-0.3-5.4-0.5-1.2-0.1-2.3-0.2-3.5-0.3-2.1-0.2-4.1-0.4-6.2-0.6l-2.7-0.3c-3-0.3-5.9-0.7-8.8-1.1-0.4 0-0.7-0.1-1.1-0.1-2.6-0.3-5.2-0.7-7.7-1l-2.1-0.3c-2.3-0.3-4.6-0.7-6.8-1-1.1-0.2-2.2-0.4-3.3-0.5-1.9-0.3-3.7-0.6-5.6-0.9-1.2-0.2-2.4-0.4-3.7-0.7-1.7-0.3-3.5-0.6-5.2-0.9-1.3-0.2-2.5-0.5-3.8-0.7-1.7-0.3-3.3-0.7-5-1-1.2-0.2-2.4-0.5-3.6-0.7l-5.7-1.2c-1.2-0.3-2.4-0.5-3.6-0.8-1.9-0.4-3.8-0.9-5.6-1.3-1.2-0.3-2.4-0.6-3.5-0.9-2-0.5-3.9-1-5.9-1.5-1-0.3-2.1-0.5-3.1-0.8-2.4-0.6-4.8-1.3-7.2-2-0.5-0.2-1.1-0.3-1.6-0.5l-10.2-3c-0.9-0.3-1.8-0.6-2.7-0.8-2.7-0.9-5.4-1.7-8.1-2.6-0.7-0.2-1.5-0.5-2.2-0.7-3.3-1.1-6.6-2.3-9.8-3.5-0.7-0.3-1.4-0.5-2.1-0.8-2.6-1-5.3-2-7.9-3l-3-1.2c-1.1-0.4-2.1-0.9-3.2-1.3-1.4-0.6-2.7-1.1-4.1-1.7-1.1-0.4-2.1-0.9-3.2-1.4-1.3-0.6-2.7-1.2-4-1.8-1-0.5-2.1-0.9-3.1-1.4-1.3-0.6-2.7-1.2-4-1.8-1-0.5-2-0.9-3.1-1.4-1.3-0.6-2.7-1.3-4-1.9-1-0.5-2-1-2.9-1.4-1.4-0.7-2.8-1.4-4.1-2.1-0.9-0.5-1.8-0.9-2.7-1.4l-4.5-2.4c-0.7-0.4-1.5-0.8-2.2-1.2-2.2-1.2-4.4-2.5-6.6-3.7-27.7-16-50.1-33.9-67.3-53L123 747.8c17.1 18.9 39.4 36.6 66.8 52.4 2.2 1.3 4.4 2.5 6.6 3.7 0.7 0.4 1.5 0.8 2.2 1.2l4.5 2.4c0.9 0.5 1.8 0.9 2.7 1.4 1.4 0.7 2.7 1.4 4.1 2.1 1 0.5 2 1 2.9 1.4 1.3 0.7 2.7 1.3 4 1.9 1 0.5 2 1 3.1 1.4 1.3 0.6 2.7 1.2 4 1.8 1 0.5 2.1 0.9 3.1 1.4 1.3 0.6 2.7 1.2 4 1.8 1.1 0.5 2.1 0.9 3.2 1.4 1.4 0.6 2.7 1.1 4.1 1.7 1.1 0.4 2.1 0.9 3.2 1.3l1.5 0.6 1.5 0.6c2.6 1 5.2 2 7.9 3 0.7 0.3 1.4 0.5 2.1 0.8 3.3 1.2 6.5 2.3 9.8 3.5 0.7 0.3 1.5 0.5 2.2 0.7 2.7 0.9 5.4 1.8 8.1 2.6 0.9 0.3 1.8 0.6 2.7 0.8 3.4 1 6.8 2.1 10.2 3h0.2c0.5 0.1 1 0.3 1.5 0.4 2.4 0.7 4.8 1.3 7.2 2 1 0.3 2.1 0.5 3.1 0.8 2 0.5 3.9 1 5.9 1.5 1.2 0.3 2.3 0.6 3.5 0.9 1.9 0.4 3.7 0.9 5.6 1.3 1.2 0.3 2.4 0.5 3.6 0.8l5.7 1.2c0.8 0.2 1.5 0.3 2.3 0.5 0.4 0.1 0.8 0.2 1.3 0.3 1.7 0.3 3.3 0.7 5 1 1.3 0.2 2.5 0.5 3.8 0.7 1.7 0.3 3.5 0.6 5.2 0.9 1.2 0.2 2.4 0.4 3.7 0.7 1.9 0.3 3.7 0.6 5.6 0.9 1.1 0.2 2.2 0.4 3.3 0.5 2.3 0.4 4.6 0.7 6.8 1 0.7 0.1 1.3 0.2 2 0.3h0.1c2.6 0.4 5.2 0.7 7.7 1 0.4 0 0.7 0.1 1.1 0.1 2.9 0.4 5.9 0.7 8.8 1.1l2.7 0.3c2.1 0.2 4.1 0.4 6.2 0.6 1.2 0.1 2.3 0.2 3.5 0.3 1.8 0.2 3.6 0.3 5.4 0.5h0.3l46.7-169.9c1.1 0.1 2.3 0.2 3.4 0.3-0.8 0.3-2 0.2-3.3 0.1z" fill="#FFFFFF" /></svg>