<svg class="svg-icon" style="width: 1em; height: 1em;vertical-align: middle;fill: currentColor;overflow: hidden;" viewBox="0 0 1024 1024" version="1.1" xmlns="http://www.w3.org/2000/svg"><path d="M927.1 379.2v-0.6c0-0.4 0-0.8-0.1-1.2 0-0.5 0-0.9-0.1-1.4 0-0.4-0.1-0.8-0.1-1.2 0-0.4-0.1-0.9-0.1-1.3 0-0.3 0-0.5-0.1-0.8-0.1-0.7-0.1-1.3-0.2-2 0-0.3-0.1-0.7-0.1-1v-0.3c-0.1-1.1-0.3-2.3-0.5-3.4v-0.1c0-0.2-0.1-0.5-0.1-0.7-0.1-0.8-0.3-1.7-0.4-2.6 0-0.2-0.1-0.4-0.1-0.6-0.1-0.5-0.2-0.9-0.3-1.4l-0.3-1.5c-0.1-0.3-0.2-0.7-0.2-1l-0.3-1.5c-0.1-0.3-0.2-0.7-0.2-1-0.1-0.5-0.3-1-0.4-1.5-0.1-0.5-0.3-1-0.4-1.5-0.1-0.2-0.1-0.4-0.2-0.7l-0.6-2.1-0.3-1.2c0-0.1-0.1-0.2-0.1-0.3-0.4-1.2-0.7-2.3-1.1-3.5v-0.1c-0.1-0.2-0.2-0.5-0.2-0.7l-0.9-2.7c-0.1-0.2-0.1-0.4-0.2-0.6-0.1-0.4-0.3-0.8-0.5-1.2-0.2-0.5-0.4-1-0.6-1.6-0.1-0.4-0.3-0.8-0.5-1.1-0.2-0.4-0.3-0.9-0.5-1.3-0.1-0.3-0.2-0.6-0.4-0.9-0.3-0.7-0.6-1.3-0.9-2-0.1-0.3-0.3-0.6-0.4-0.9 0-0.1-0.1-0.2-0.1-0.3l-1.5-3.3c0-0.1-0.1-0.1-0.1-0.2-0.2-0.4-0.3-0.7-0.5-1.1-0.4-0.8-0.8-1.6-1.1-2.4-0.1-0.1-0.1-0.3-0.2-0.4-0.3-0.7-0.7-1.4-1-2-0.3-0.5-0.6-1.1-0.8-1.6-0.1-0.1-0.1-0.2-0.2-0.3-1-1.8-1.9-3.5-3-5.3-0.1-0.1-0.2-0.3-0.2-0.4-0.3-0.4-0.5-0.9-0.8-1.3-0.4-0.7-0.9-1.4-1.3-2.1l-1.2-1.8c-0.4-0.7-0.9-1.4-1.4-2.1-0.2-0.2-0.3-0.5-0.5-0.7-0.1-0.2-0.3-0.4-0.4-0.6-1.3-1.9-2.5-3.7-3.8-5.5-0.2-0.2-0.3-0.4-0.5-0.7-0.8-1-1.6-2.1-2.4-3.1l-0.2-0.2c-0.6-0.7-1.2-1.5-1.8-2.2-0.3-0.3-0.5-0.6-0.8-1 0 0 0-0.1-0.1-0.1-0.9-1-1.7-2.1-2.6-3.1l-0.1-0.1c-0.2-0.2-0.4-0.5-0.6-0.7-0.6-0.7-1.3-1.4-1.9-2.1l-0.3-0.3c-0.4-0.4-0.8-0.8-1.1-1.2-0.5-0.5-0.9-1-1.4-1.4l-0.4-0.4c-0.4-0.4-0.8-0.8-1.3-1.2l-1.2-1.2c-0.2-0.2-0.4-0.4-0.6-0.5-0.5-0.4-0.9-0.9-1.4-1.3-0.3-0.3-0.7-0.6-1-1-0.2-0.2-0.5-0.4-0.7-0.6-0.5-0.4-0.9-0.8-1.4-1.2-0.3-0.3-0.6-0.5-0.9-0.8-0.3-0.2-0.6-0.5-0.9-0.7-0.5-0.4-0.9-0.7-1.4-1.1-0.3-0.2-0.5-0.4-0.8-0.6-0.4-0.3-0.7-0.6-1.1-0.9-0.4-0.3-0.8-0.7-1.3-1-0.2-0.1-0.4-0.3-0.6-0.4-0.5-0.4-1-0.7-1.5-1.1-0.4-0.3-0.7-0.5-1.1-0.8-0.1-0.1-0.2-0.1-0.3-0.2-0.9-0.6-1.9-1.3-2.8-1.9 0 0-0.1 0-0.1-0.1-0.9-0.6-1.8-1.1-2.7-1.7-0.2-0.1-0.4-0.3-0.7-0.4L586.1 107.8l-2.1-1.2c-0.3-0.2-0.6-0.3-0.8-0.4-0.4-0.2-0.7-0.4-1.1-0.6-0.3-0.1-0.6-0.3-0.8-0.4-0.5-0.2-0.9-0.4-1.4-0.7-0.3-0.1-0.6-0.3-0.9-0.4-0.1-0.1-0.2-0.1-0.4-0.2-0.9-0.4-1.8-0.8-2.7-1.1-0.1 0-0.2-0.1-0.3-0.1l-2.4-0.9c-0.1 0-0.3-0.1-0.4-0.1-0.3-0.1-0.7-0.2-1-0.3-0.4-0.1-0.9-0.3-1.3-0.4-0.2-0.1-0.5-0.1-0.7-0.2l-1.2-0.3c-0.3-0.1-0.6-0.2-0.9-0.2-0.3-0.1-0.7-0.1-1-0.2l-1.2-0.3c-0.2 0-0.4-0.1-0.6-0.1-0.4-0.1-0.8-0.1-1.2-0.2-0.5-0.1-0.9-0.2-1.4-0.2-0.1 0-0.3-0.1-0.4-0.1-0.4-0.1-0.8-0.1-1.2-0.1-0.5-0.1-1-0.1-1.4-0.1h-1.4c-0.6 0-1.2-0.1-1.8-0.1H555c-0.7 0-1.4 0-2.2 0.1h-0.6c-0.3 0-0.6 0.1-0.9 0.1-0.2 0-0.4 0-0.6 0.1-0.8 0.1-1.6 0.2-2.3 0.4h-0.1c-0.3 0.1-0.5 0.1-0.8 0.2-0.6 0.1-1.2 0.3-1.8 0.4l-0.9 0.3c-0.4 0.1-0.8 0.2-1.2 0.4-0.1 0-0.2 0.1-0.3 0.1-0.6 0.2-1.2 0.5-1.8 0.7-0.3 0.1-0.6 0.2-0.9 0.4-0.9 0.4-1.7 0.8-2.5 1.3l-321 148c0.8-0.5 1.7-0.9 2.5-1.3 0.3-0.1 0.6-0.2 0.9-0.4 0.6-0.3 1.2-0.5 1.8-0.7 0.5-0.2 1-0.3 1.5-0.5l0.9-0.3c0.6-0.2 1.2-0.3 1.8-0.4 0.3-0.1 0.5-0.1 0.8-0.2 0.8-0.2 1.6-0.3 2.4-0.4 0.2 0 0.4-0.1 0.6-0.1 0.5-0.1 1-0.1 1.6-0.1 0.7-0.1 1.4-0.1 2.2-0.1h1.2c0.6 0 1.2 0 1.8 0.1 0.5 0 0.9 0 1.4 0.1 0.5 0 1 0.1 1.4 0.1 0.5 0.1 1.1 0.1 1.6 0.2 0.4 0.1 0.9 0.1 1.4 0.2 0.6 0.1 1.2 0.2 1.7 0.3l1.2 0.3c0.6 0.1 1.3 0.3 1.9 0.5l1.2 0.3c0.7 0.2 1.4 0.4 2 0.6 0.3 0.1 0.7 0.2 1 0.3 0.9 0.3 1.9 0.7 2.8 1 0.1 0 0.2 0.1 0.3 0.1 1 0.4 2.1 0.9 3.1 1.3 0.3 0.1 0.6 0.3 0.9 0.4 0.7 0.4 1.5 0.7 2.2 1.1 0.4 0.2 0.7 0.4 1.1 0.6 1 0.5 2 1 3 1.6l306.4 176.9c1.1 0.7 2.3 1.3 3.4 2.1 0 0 0.1 0 0.1 0.1 1.1 0.7 2.1 1.4 3.2 2.1 0.4 0.3 0.7 0.5 1.1 0.8l2.1 1.5c0.4 0.3 0.8 0.6 1.3 1 0.6 0.5 1.3 1 1.9 1.5 0.5 0.4 0.9 0.7 1.4 1.1l1.8 1.5c0.5 0.4 0.9 0.8 1.4 1.2 0.6 0.5 1.2 1 1.7 1.6 0.5 0.4 0.9 0.8 1.4 1.3 0.6 0.6 1.2 1.1 1.7 1.7 0.4 0.4 0.8 0.8 1.3 1.2 0.6 0.6 1.2 1.2 1.8 1.9 0.4 0.4 0.8 0.8 1.1 1.2 0.7 0.8 1.4 1.6 2.2 2.4l0.7 0.7c0.9 1.1 1.9 2.1 2.8 3.2 0.3 0.3 0.5 0.7 0.8 1 0.6 0.8 1.3 1.6 1.9 2.4 0.8 1 1.6 2.1 2.4 3.1 0.2 0.2 0.3 0.4 0.5 0.7 1.3 1.8 2.6 3.6 3.9 5.5 0.3 0.4 0.6 0.9 0.9 1.3 0.5 0.7 0.9 1.4 1.4 2.1l1.2 1.8c0.4 0.7 0.9 1.4 1.3 2.2 0.3 0.6 0.7 1.1 1 1.7 1 1.7 2 3.5 3 5.3 0.3 0.6 0.7 1.3 1 1.9 0.4 0.7 0.7 1.4 1.1 2 0.5 0.9 0.9 1.8 1.4 2.8 0.2 0.4 0.3 0.7 0.5 1.1 0.6 1.2 1.2 2.5 1.7 3.8 0.1 0.3 0.3 0.6 0.4 1 0.4 1 0.8 1.9 1.2 2.9 0.2 0.4 0.3 0.9 0.5 1.3 0.4 0.9 0.7 1.8 1 2.7 0.2 0.4 0.3 0.8 0.5 1.2 0.4 1.1 0.8 2.2 1.1 3.2 0.1 0.2 0.2 0.4 0.2 0.7 0.4 1.3 0.9 2.6 1.2 3.9l0.3 1.2c0.3 0.9 0.5 1.9 0.8 2.8 0.1 0.5 0.3 1 0.4 1.5 0.2 0.8 0.4 1.7 0.6 2.5l0.3 1.5c0.2 0.9 0.4 1.7 0.5 2.6 0.1 0.5 0.2 0.9 0.3 1.4 0.2 1 0.4 2.1 0.6 3.1 0 0.2 0.1 0.5 0.1 0.7 0.2 1.3 0.4 2.6 0.5 3.8 0 0.3 0.1 0.7 0.1 1 0.1 0.9 0.2 1.9 0.3 2.8 0 0.4 0.1 0.9 0.1 1.3 0.1 0.9 0.1 1.7 0.2 2.6 0 0.4 0 0.8 0.1 1.2 0 1.2 0.1 2.4 0.1 3.6l-0.9 304.8c0 1.3 0 2.5-0.1 3.7 0 0.3 0 0.7-0.1 1 0 0.8-0.1 1.7-0.2 2.5 0 0.5-0.1 0.9-0.1 1.4-0.1 0.7-0.2 1.4-0.2 2-0.1 0.5-0.1 1-0.2 1.5l-0.3 1.8c-0.1 0.5-0.2 1.1-0.3 1.6-0.1 0.5-0.2 1.1-0.4 1.6-0.2 0.6-0.3 1.2-0.5 1.8-0.1 0.5-0.3 0.9-0.4 1.4-0.2 0.7-0.5 1.4-0.7 2.1-0.1 0.4-0.3 0.8-0.4 1.2-0.4 1.2-0.9 2.3-1.4 3.4-0.4 0.9-0.8 1.7-1.3 2.5-0.1 0.2-0.2 0.3-0.3 0.5-0.4 0.6-0.7 1.3-1.1 1.9-0.1 0.2-0.2 0.4-0.4 0.5-0.4 0.5-0.7 1.1-1.1 1.6-0.2 0.2-0.3 0.4-0.5 0.7-0.4 0.5-0.8 1-1.2 1.4-0.1 0.2-0.3 0.3-0.4 0.5-0.5 0.6-1.1 1.2-1.7 1.8l-0.3 0.3c-0.5 0.5-1 0.9-1.5 1.3-0.2 0.2-0.4 0.3-0.6 0.5-0.5 0.4-0.9 0.7-1.4 1-0.2 0.1-0.4 0.3-0.6 0.4-0.7 0.5-1.3 0.9-2 1.3L907 697c0.7-0.4 1.4-0.8 2-1.3 0.2-0.1 0.4-0.3 0.6-0.4 0.5-0.3 0.9-0.7 1.4-1 0.2-0.2 0.4-0.3 0.6-0.5 0.5-0.4 1-0.9 1.5-1.3l0.3-0.3c0.6-0.6 1.1-1.2 1.7-1.8 0.1-0.2 0.3-0.3 0.4-0.5 0.4-0.5 0.8-0.9 1.2-1.4 0.2-0.2 0.3-0.4 0.5-0.6 0.4-0.5 0.8-1.1 1.1-1.6 0.1-0.2 0.2-0.3 0.4-0.5 0-0.1 0.1-0.1 0.1-0.2 0.4-0.6 0.7-1.1 1-1.7 0.1-0.2 0.2-0.3 0.3-0.5 0.4-0.8 0.9-1.6 1.3-2.4v-0.1c0.5-1.1 1-2.3 1.4-3.4 0-0.1 0.1-0.2 0.1-0.3 0.1-0.3 0.2-0.6 0.3-0.8 0.2-0.7 0.5-1.4 0.7-2.1 0.1-0.2 0.1-0.4 0.2-0.6 0.1-0.3 0.1-0.5 0.2-0.8 0.2-0.6 0.3-1.2 0.5-1.8 0.1-0.3 0.1-0.5 0.2-0.8 0.1-0.3 0.1-0.5 0.2-0.8 0.1-0.5 0.2-1.1 0.3-1.6 0.1-0.3 0.1-0.6 0.2-0.9 0.1-0.3 0.1-0.6 0.1-1 0.1-0.5 0.2-1 0.2-1.5 0-0.3 0.1-0.5 0.1-0.8 0.1-0.4 0.1-0.8 0.1-1.3 0.1-0.5 0.1-0.9 0.1-1.4 0-0.2 0-0.4 0.1-0.6 0.1-0.6 0.1-1.2 0.1-1.9 0-0.3 0-0.7 0.1-1v-0.3c0-1.1 0.1-2.1 0.1-3.2v-0.2l0.9-271c-0.4-1.6-0.4-2.6-0.5-3.6z" fill="#337DFF" /><path d="M641.9 390c35.8 20.7 65 71.2 64.8 112.3l-1 363.8c-0.1 41.1-29.5 57.8-65.3 37.2L278 694.1c-35.8-20.7-65-71.2-64.8-112.3l1-363.8c0.1-41.1 29.5-57.8 65.3-37.2L641.9 390z" fill="#99BEFF" /><path d="M688.6 506.9v-0.6c0-0.4 0-0.8-0.1-1.2 0-0.5 0-0.9-0.1-1.4 0-0.4-0.1-0.7-0.1-1.1 0-0.4-0.1-0.8-0.1-1.2 0-0.3 0-0.5-0.1-0.8-0.1-0.6-0.1-1.3-0.2-1.9 0-0.3-0.1-0.6-0.1-1v-0.3c-0.1-1.1-0.3-2.2-0.5-3.2v-0.1c0-0.2-0.1-0.4-0.1-0.7-0.1-0.8-0.3-1.6-0.4-2.5 0-0.2-0.1-0.4-0.1-0.6-0.1-0.4-0.2-0.9-0.3-1.3l-0.3-1.5c-0.1-0.3-0.2-0.6-0.2-1-0.1-0.5-0.2-0.9-0.3-1.4-0.1-0.3-0.2-0.7-0.2-1-0.1-0.5-0.2-0.9-0.4-1.4-0.1-0.5-0.2-0.9-0.4-1.4-0.1-0.2-0.1-0.4-0.2-0.6-0.2-0.7-0.4-1.4-0.6-2-0.1-0.4-0.2-0.7-0.3-1.1 0-0.1-0.1-0.2-0.1-0.3-0.3-1.1-0.7-2.2-1.1-3.4v-0.1c-0.1-0.2-0.2-0.4-0.2-0.6-0.3-0.9-0.6-1.7-0.9-2.6-0.1-0.2-0.1-0.4-0.2-0.5-0.1-0.4-0.3-0.8-0.4-1.2l-0.6-1.5c-0.1-0.4-0.3-0.7-0.4-1.1-0.2-0.4-0.3-0.8-0.5-1.2-0.1-0.3-0.2-0.6-0.3-0.8-0.3-0.6-0.5-1.3-0.8-1.9-0.1-0.3-0.3-0.6-0.4-0.9 0-0.1-0.1-0.2-0.1-0.3-0.5-1.1-0.9-2.1-1.4-3.2 0-0.1-0.1-0.1-0.1-0.2-0.2-0.3-0.3-0.7-0.5-1-0.4-0.8-0.7-1.5-1.1-2.3-0.1-0.1-0.1-0.3-0.2-0.4-0.3-0.7-0.7-1.3-1-2-0.3-0.5-0.5-1-0.8-1.5-0.1-0.1-0.1-0.2-0.2-0.3-0.9-1.7-1.9-3.4-2.8-5.1-0.1-0.1-0.2-0.3-0.2-0.4-0.2-0.4-0.5-0.8-0.7-1.2-0.4-0.7-0.8-1.4-1.3-2.1-0.4-0.6-0.7-1.2-1.1-1.8-0.4-0.7-0.9-1.4-1.3-2-0.1-0.2-0.3-0.5-0.4-0.7-0.1-0.2-0.3-0.4-0.4-0.6-1.2-1.8-2.4-3.5-3.7-5.3-0.1-0.2-0.3-0.4-0.5-0.6-0.8-1-1.5-2-2.3-3l-0.2-0.2c-0.6-0.7-1.1-1.4-1.7-2.1-0.3-0.3-0.5-0.6-0.8-0.9 0 0 0-0.1-0.1-0.1-0.8-1-1.7-2-2.5-2.9l-0.1-0.1c-0.2-0.2-0.4-0.5-0.6-0.7-0.6-0.7-1.2-1.4-1.8-2l-0.3-0.3c-0.4-0.4-0.7-0.8-1.1-1.1-0.4-0.5-0.9-0.9-1.3-1.4l-0.4-0.4-1.2-1.2-1.1-1.1c-0.2-0.2-0.4-0.3-0.6-0.5-0.4-0.4-0.9-0.8-1.3-1.2-0.3-0.3-0.6-0.6-1-0.9-0.2-0.2-0.5-0.4-0.7-0.6-0.4-0.4-0.9-0.8-1.3-1.2-0.3-0.2-0.6-0.5-0.9-0.8-0.3-0.2-0.6-0.5-0.8-0.7-0.4-0.4-0.9-0.7-1.3-1.1-0.2-0.2-0.5-0.4-0.7-0.6-0.4-0.3-0.7-0.5-1.1-0.8l-1.2-0.9c-0.2-0.1-0.4-0.3-0.5-0.4-0.5-0.4-1-0.7-1.5-1-0.3-0.2-0.7-0.5-1-0.7-0.1-0.1-0.2-0.1-0.3-0.2l-2.7-1.8s-0.1 0-0.1-0.1c-0.9-0.6-1.7-1.1-2.6-1.6-0.2-0.1-0.4-0.2-0.6-0.4L261.4 188.3c-0.7-0.4-1.4-0.8-2-1.1-0.3-0.1-0.5-0.3-0.8-0.4-0.3-0.2-0.7-0.4-1-0.5-0.3-0.1-0.5-0.3-0.8-0.4-0.5-0.2-0.9-0.4-1.4-0.6-0.3-0.1-0.6-0.3-0.9-0.4-0.1-0.1-0.2-0.1-0.4-0.2-0.9-0.4-1.7-0.8-2.6-1.1-0.1 0-0.2-0.1-0.3-0.1-0.8-0.3-1.5-0.6-2.3-0.9-0.1 0-0.3-0.1-0.4-0.1-0.3-0.1-0.6-0.2-1-0.3-0.4-0.1-0.8-0.3-1.2-0.4-0.2-0.1-0.5-0.1-0.7-0.2-0.4-0.1-0.8-0.2-1.1-0.3-0.3-0.1-0.6-0.2-0.8-0.2-0.3-0.1-0.7-0.1-1-0.2-0.4-0.1-0.8-0.2-1.1-0.3-0.2 0-0.4-0.1-0.5-0.1-0.4-0.1-0.8-0.1-1.1-0.2-0.4-0.1-0.9-0.2-1.3-0.2-0.1 0-0.3-0.1-0.4-0.1-0.4-0.1-0.8-0.1-1.1-0.1-0.5-0.1-0.9-0.1-1.4-0.1h-1.4c-0.6 0-1.1-0.1-1.7-0.1h-1.1c-0.7 0-1.4 0-2.1 0.1h-0.6c-0.3 0-0.6 0.1-0.9 0.1-0.2 0-0.4 0-0.6 0.1-0.8 0.1-1.5 0.2-2.2 0.4h-0.1c-0.2 0.1-0.5 0.1-0.7 0.2-0.6 0.1-1.2 0.3-1.7 0.4l-0.9 0.3c-0.4 0.1-0.7 0.2-1.1 0.4-0.1 0-0.2 0.1-0.3 0.1-0.6 0.2-1.2 0.5-1.7 0.7-0.3 0.1-0.6 0.2-0.8 0.4-0.8 0.4-1.7 0.8-2.4 1.3l-80.8 46.9c0.8-0.5 1.6-0.9 2.4-1.3 0.3-0.1 0.6-0.2 0.8-0.4 0.6-0.2 1.1-0.5 1.7-0.7 0.5-0.2 0.9-0.3 1.4-0.5l0.9-0.3c0.6-0.2 1.1-0.3 1.7-0.4 0.2-0.1 0.5-0.1 0.7-0.2 0.8-0.2 1.5-0.3 2.3-0.4 0.2 0 0.4 0 0.6-0.1 0.5-0.1 1-0.1 1.5-0.1 0.7-0.1 1.4-0.1 2.1-0.1h1.1c0.6 0 1.1 0 1.7 0.1 0.4 0 0.9 0 1.3 0.1 0.5 0 0.9 0.1 1.4 0.1 0.5 0.1 1 0.1 1.5 0.2 0.4 0.1 0.9 0.1 1.3 0.2 0.6 0.1 1.1 0.2 1.7 0.3 0.4 0.1 0.8 0.2 1.1 0.3 0.6 0.1 1.2 0.3 1.8 0.4 0.4 0.1 0.8 0.2 1.1 0.3 0.6 0.2 1.3 0.4 2 0.6 0.3 0.1 0.6 0.2 1 0.3 0.9 0.3 1.8 0.6 2.7 1 0.1 0 0.2 0.1 0.3 0.1 1 0.4 2 0.8 3 1.3 0.3 0.1 0.6 0.3 0.9 0.4 0.7 0.3 1.4 0.7 2.2 1.1 0.3 0.2 0.7 0.4 1 0.5 0.9 0.5 1.9 1 2.8 1.6l362.3 209c1.1 0.6 2.2 1.3 3.3 2 0 0 0.1 0 0.1 0.1 1 0.6 2 1.3 3 2 0.4 0.2 0.7 0.5 1 0.7 0.7 0.5 1.3 1 2 1.4l1.2 0.9c0.6 0.5 1.2 0.9 1.8 1.4 0.4 0.4 0.9 0.7 1.3 1.1 0.6 0.5 1.1 1 1.7 1.4 0.4 0.4 0.9 0.8 1.3 1.2 0.6 0.5 1.1 1 1.7 1.5 0.4 0.4 0.9 0.8 1.3 1.2 0.6 0.5 1.1 1.1 1.7 1.6l1.2 1.2c0.6 0.6 1.2 1.2 1.7 1.8l1.1 1.1c0.7 0.8 1.4 1.5 2.1 2.3 0.2 0.2 0.4 0.5 0.6 0.7 0.9 1 1.8 2.1 2.7 3.1 0.3 0.3 0.5 0.6 0.8 0.9 0.6 0.8 1.2 1.5 1.9 2.3 0.8 1 1.5 2 2.3 3 0.2 0.2 0.3 0.4 0.5 0.6 1.3 1.7 2.5 3.5 3.7 5.3 0.3 0.4 0.6 0.9 0.9 1.3 0.4 0.7 0.9 1.3 1.3 2 0.4 0.6 0.8 1.2 1.1 1.8 0.4 0.7 0.8 1.4 1.3 2.1 0.3 0.6 0.7 1.1 1 1.7 1 1.7 1.9 3.4 2.8 5.1 0.3 0.6 0.6 1.2 1 1.8 0.3 0.7 0.7 1.3 1 2 0.4 0.9 0.9 1.8 1.3 2.7 0.2 0.3 0.3 0.7 0.5 1 0.6 1.2 1.1 2.4 1.6 3.6 0.1 0.3 0.3 0.6 0.4 0.9l1.2 2.7c0.2 0.4 0.3 0.8 0.5 1.2 0.3 0.9 0.7 1.7 1 2.6 0.1 0.4 0.3 0.8 0.4 1.2 0.4 1 0.7 2.1 1.1 3.1 0.1 0.2 0.2 0.4 0.2 0.6 0.4 1.2 0.8 2.5 1.2 3.8 0.1 0.4 0.2 0.7 0.3 1.1 0.3 0.9 0.5 1.8 0.8 2.7 0.1 0.5 0.2 0.9 0.4 1.4l0.6 2.4c0.1 0.5 0.2 0.9 0.3 1.4 0.2 0.8 0.4 1.6 0.5 2.5 0.1 0.4 0.2 0.9 0.3 1.3 0.2 1 0.4 2 0.5 3 0 0.2 0.1 0.4 0.1 0.7 0.2 1.2 0.4 2.5 0.5 3.7 0 0.3 0.1 0.6 0.1 1l0.3 2.7c0 0.4 0.1 0.8 0.1 1.2 0.1 0.8 0.1 1.7 0.2 2.5 0 0.4 0 0.8 0.1 1.2 0 1.2 0.1 2.3 0.1 3.5l-1 363.8c0 1.2 0 2.4-0.1 3.5 0 0.3 0 0.6-0.1 1 0 0.8-0.1 1.6-0.2 2.4 0 0.4-0.1 0.9-0.1 1.3-0.1 0.7-0.1 1.3-0.2 2-0.1 0.5-0.1 0.9-0.2 1.4l-0.3 1.8-0.3 1.5c-0.1 0.5-0.2 1-0.4 1.5-0.1 0.6-0.3 1.2-0.5 1.8-0.1 0.5-0.3 0.9-0.4 1.4-0.2 0.7-0.4 1.4-0.7 2-0.1 0.4-0.3 0.8-0.4 1.1-0.4 1.1-0.9 2.2-1.4 3.3l-1.2 2.4c-0.1 0.2-0.2 0.3-0.3 0.5-0.4 0.6-0.7 1.2-1.1 1.8-0.1 0.2-0.2 0.3-0.3 0.5-0.3 0.5-0.7 1-1.1 1.5-0.2 0.2-0.3 0.4-0.5 0.6-0.4 0.5-0.7 0.9-1.1 1.4-0.1 0.2-0.3 0.3-0.4 0.5-0.5 0.6-1.1 1.2-1.6 1.7l-0.3 0.3c-0.5 0.4-1 0.9-1.4 1.3-0.2 0.2-0.4 0.3-0.6 0.5-0.4 0.3-0.9 0.7-1.3 1-0.2 0.1-0.4 0.3-0.6 0.4-0.6 0.4-1.3 0.8-1.9 1.2l80.8-46.9c0.7-0.4 1.3-0.8 1.9-1.2 0.2-0.1 0.4-0.3 0.6-0.4 0.5-0.3 0.9-0.7 1.3-1 0.2-0.2 0.4-0.3 0.6-0.5 0.5-0.4 1-0.8 1.4-1.3l0.3-0.3c0.6-0.5 1.1-1.1 1.6-1.7 0.1-0.2 0.3-0.3 0.4-0.5 0.4-0.4 0.8-0.9 1.1-1.4 0.2-0.2 0.3-0.4 0.5-0.6 0.4-0.5 0.7-1 1.1-1.5 0.1-0.2 0.2-0.3 0.3-0.5 0-0.1 0.1-0.1 0.1-0.2 0.3-0.5 0.7-1.1 1-1.6 0.1-0.2 0.2-0.3 0.3-0.5 0.4-0.8 0.8-1.5 1.2-2.3v-0.1c0.5-1.1 1-2.2 1.4-3.3 0-0.1 0.1-0.2 0.1-0.3 0.1-0.3 0.2-0.5 0.3-0.8 0.2-0.7 0.5-1.3 0.7-2 0.1-0.2 0.1-0.4 0.2-0.6 0.1-0.3 0.1-0.5 0.2-0.8 0.2-0.6 0.3-1.2 0.5-1.8 0.1-0.3 0.1-0.5 0.2-0.8 0.1-0.3 0.1-0.5 0.2-0.8l0.3-1.5c0.1-0.3 0.1-0.6 0.2-0.8 0.1-0.3 0.1-0.6 0.1-0.9 0.1-0.5 0.1-0.9 0.2-1.4 0-0.3 0.1-0.5 0.1-0.8 0-0.4 0.1-0.8 0.1-1.2 0-0.4 0.1-0.9 0.1-1.3 0-0.2 0-0.4 0.1-0.6 0-0.6 0.1-1.2 0.1-1.8 0-0.3 0-0.6 0.1-1v-0.3c0-1 0.1-2.1 0.1-3.1v-0.2l1-363.8c-0.2-0.9-0.2-1.9-0.2-2.9z" fill="#FFE872" /><path d="M543 444.5c35.8 20.7 65 71.2 64.8 112.3l-1 363.8c-0.1 41.1-29.5 57.8-65.3 37.2L179.1 748.5c-35.8-20.7-65-71.2-64.8-112.3l1-363.8c0.1-41.1 29.5-57.8 65.3-37.2L543 444.5z" fill="#99BEFF" /><path d="M519.9 463.8c31.2 18 56.7 62.2 56.6 98.1l-0.9 246.1c-0.1 35.9-25.7 50.5-57 32.5L202.2 657.6c-31.2-18-56.7-62.2-56.6-98.1l0.9-246.1c0.1-35.9 25.7-50.5 57-32.5l316.4 182.9z" fill="#FFDEDE" /><path d="M508.8 869.8c6.5 3.7 11.8 12.9 11.7 20.3l-0.2-0.4c0 7.4-5.3 10.5-11.8 6.7l-65.6-37.9c-6.5-3.7-11.8-12.9-11.7-20.3l0.2 0.4c0-7.4 5.3-10.5 11.8-6.7l65.6 37.9zM358 783.8c6.5 3.7 11.8 12.9 11.7 20.3l-0.2-0.4c0 7.4-5.3 10.5-11.8 6.7l-8.4-4.8c-6.5-3.7-11.8-12.9-11.7-20.3l0.2 0.4c0-7.4 5.3-10.5 11.8-6.7l8.4 4.8zM402 809.9c6.5 3.7 11.8 12.9 11.7 20.3l-0.2-0.4c0 7.4-5.3 10.5-11.8 6.7l-8.4-4.8c-6.5-3.7-11.8-12.9-11.7-20.3l0.2 0.4c0-7.4 5.3-10.5 11.8-6.7l8.4 4.8z" fill="#FFE872" /></svg>